# xmcd
#
# Track frame offsets:
#	150
#	20128
#	37348
#	51085
#	62063
#	75967
#	94301
#	109431
#	122638
#	132028
#
# Disc length: 2239 seconds
#
# Revision: 0
# Processed by: cddbd v1.5.2PL0 Copyright (c) Steve Scherf et al.
# Submitted via: audiograbber 1.83.01
#
DISCID=8908bd0a
DTITLE=Carl Perkins, Jerry Lee Lewis, Roy Orbison, Johnny Cash - Class of '55 -
DTITLE=Memphis Rock and Roll Homecoming
DYEAR=1986
DGENRE=Rockabilly
TTITLE0=Birth of Rock and Roll
TTITLE1=Sixteen candles
TTITLE2=Class of '55
TTITLE3=Waymore's blues
TTITLE4=We remember the king
TTITLE5=Coming home
TTITLE6=Rock and roll  (Fais do-do)
TTITLE7=Keep my motor running
TTITLE8=I will rock and roll with you
TTITLE9=Big train  (from Memphis)
EXTD=
EXTT0=
EXTT1=
EXTT2=
EXTT3=
EXTT4=
EXTT5=
EXTT6=
EXTT7=
EXTT8=
EXTT9=
PLAYORDER=
